<svg xmlns="http://www.w3.org/2000/svg" fill-rule="evenodd" stroke-linejoin="round" stroke-miterlimit="2" clip-rule="evenodd" viewBox="0 0 32 32" id="bread"><path d="M60.108,91.733C60.335,91.515 60.565,91.311 60.793,91.111C60.951,90.973 61.18,90.948 61.365,91.05C62.454,91.655 63.502,92.029 64.242,92.098C64.403,92.113 64.547,92.113 64.668,92.093C64.706,92.086 64.741,92.078 64.772,92.066C64.788,92.06 64.806,92.063 64.813,92.051C64.824,92.032 64.807,92.009 64.8,91.982C64.783,91.908 64.748,91.829 64.702,91.744C64.546,91.46 64.271,91.14 63.91,90.806L63.906,90.803C63.578,90.494 63.406,90.053 63.439,89.603C63.472,89.152 63.706,88.741 64.074,88.484C65.446,87.518 66.658,86.879 67.678,86.627C68.849,86.338 69.797,86.536 70.507,87.245C71.526,88.265 71.788,90.223 71.133,92.72C70.221,96.193 67.577,100.78 63.193,105.165C58.808,109.549 54.221,112.193 50.748,113.104C48.251,113.76 46.293,113.498 45.274,112.479C44.607,111.812 44.393,110.936 44.607,109.863C44.884,108.48 45.924,106.718 47.551,104.663C47.657,104.53 47.823,104.459 47.992,104.476C48.058,104.483 48.122,104.502 48.178,104.533L48.178,104.532C49.221,105.087 50.211,105.427 50.909,105.48C51.059,105.491 51.192,105.489 51.305,105.468C51.361,105.457 51.414,105.465 51.435,105.429C51.444,105.413 51.43,105.395 51.425,105.373C51.417,105.334 51.404,105.294 51.386,105.251C51.303,105.048 51.14,104.821 50.919,104.575C49.949,103.48 49.971,101.827 50.962,100.767C51.198,100.504 51.444,100.243 51.695,99.979C51.854,99.813 52.106,99.776 52.305,99.89C53.428,100.531 54.518,100.933 55.289,101.013C55.459,101.031 55.61,101.033 55.738,101.013C55.778,101.007 55.816,100.998 55.849,100.986C55.867,100.98 55.887,100.983 55.895,100.97C55.905,100.953 55.889,100.932 55.884,100.909C55.875,100.868 55.86,100.826 55.841,100.781C55.751,100.57 55.579,100.335 55.345,100.079C54.333,98.956 54.381,97.237 55.445,96.18C55.739,95.874 55.995,95.62 56.129,95.487C56.289,95.33 56.535,95.298 56.73,95.41C57.86,96.061 58.961,96.469 59.74,96.553C59.912,96.572 60.065,96.574 60.194,96.554C60.235,96.548 60.273,96.54 60.308,96.527C60.326,96.521 60.346,96.524 60.354,96.51C60.362,96.496 60.349,96.478 60.345,96.458C60.338,96.421 60.325,96.383 60.309,96.342C60.23,96.145 60.075,95.925 59.862,95.684C58.857,94.518 58.967,92.764 60.108,91.733ZM48.083,105.606C46.954,107.064 46.147,108.348 45.764,109.434C45.417,110.417 45.42,111.21 45.981,111.772C46.372,112.163 46.952,112.378 47.668,112.447C48.467,112.525 49.423,112.418 50.494,112.137C53.845,111.258 58.256,108.687 62.486,104.457C66.715,100.228 69.286,95.816 70.165,92.466C70.446,91.395 70.553,90.438 70.476,89.64C70.406,88.924 70.192,88.344 69.8,87.953C69.331,87.483 68.692,87.406 67.918,87.598C66.991,87.827 65.897,88.424 64.648,89.303C64.525,89.389 64.447,89.526 64.436,89.676C64.425,89.825 64.482,89.972 64.592,90.075L64.589,90.072C65.146,90.588 65.526,91.091 65.693,91.503C65.862,91.918 65.837,92.277 65.679,92.551C65.501,92.859 65.135,93.077 64.587,93.105C63.806,93.145 62.538,92.791 61.193,92.093L60.785,92.469C60.041,93.135 59.967,94.275 60.616,95.027C60.983,95.443 61.215,95.839 61.303,96.165C61.391,96.494 61.353,96.78 61.22,97.01C61.038,97.325 60.658,97.546 60.088,97.566C59.273,97.595 57.951,97.208 56.566,96.464C56.449,96.582 56.309,96.724 56.158,96.881C55.464,97.57 55.433,98.683 56.086,99.407C56.481,99.839 56.735,100.252 56.834,100.592C56.934,100.935 56.898,101.232 56.761,101.47C56.58,101.783 56.202,102.004 55.637,102.025C54.831,102.056 53.527,101.679 52.155,100.948C52.001,101.111 51.85,101.275 51.7,101.442C51.054,102.134 51.039,103.203 51.665,103.909C52.045,104.333 52.287,104.736 52.38,105.069C52.474,105.404 52.437,105.695 52.301,105.929C52.128,106.23 51.777,106.444 51.252,106.481C50.523,106.531 49.35,106.227 48.083,105.606Z" transform="translate(-42 -84)" fill="white"></path></svg>